<svg xmlns="http://www.w3.org/2000/svg" width="184" height="40" viewBox="0 0 184 40" fill="none"><path d="M73.2881 23.974H84.7606L78.993 8.19997L73.2881 23.974ZM86.8921 29.7953H71.282L69.4639 34.6777C68.7743 36.5556 68.1474 37.8701 67.6459 38.5586C67.1444 39.1846 66.3294 39.5602 65.1382 39.5602C64.1979 39.5602 63.3202 39.1846 62.5679 38.496C61.8156 37.8075 61.4395 36.9938 61.4395 36.0548C61.4395 34.9907 61.7529 34.1144 62.5679 32.1113L72.3477 7.26104L73.3508 4.69464C73.727 3.69312 74.1658 2.81678 74.6046 2.19083C75.545 0.876333 76.9242 0 79.0557 0C81.2499 0 82.6291 0.938928 83.5068 2.19083C83.9456 2.81678 84.3218 3.50533 84.6352 4.25647C84.9487 5.00761 85.3248 6.00914 85.8264 7.19845L95.857 31.9235C96.6093 33.8014 97.0481 35.1785 97.0481 36.0548C97.0481 36.9312 96.672 37.7449 95.9197 38.496C95.1674 39.2472 94.2897 39.6228 93.224 39.6228C91.9701 39.6228 91.1552 39.122 90.5282 38.4334C90.2148 38.0579 89.9013 37.4945 89.5879 36.6808C89.2744 35.867 88.961 35.2411 88.7102 34.6151L86.8921 29.7953Z" fill="#FFC629"></path><path d="M109.525 30.7968L118.239 4.94502C118.678 3.56793 119.054 2.629 119.242 2.12824C119.681 1.06412 120.684 0.0625952 122.502 0.0625952C124.571 0.0625952 126.138 1.81526 126.138 3.50533C126.138 4.69464 125.574 6.07173 125.135 7.38623L115.857 32.4243C114.415 36.2426 113.662 39.6228 109.337 39.6853C105.074 39.6853 104.133 36.18 102.754 32.4243L93.6639 7.57402C93.2251 6.32211 92.5981 4.75723 92.5981 3.56793C92.5981 2.69159 92.9743 1.87786 93.6639 1.12671C94.3535 0.375571 95.2939 0 96.3596 0C97.6761 0 98.6165 0.438166 99.1807 1.2519C99.745 2.06564 100.309 3.31755 100.873 5.13281L109.525 30.7968Z" fill="#FFC629"></path><path d="M136.666 8.76516V35.1803C136.666 38.1223 135.224 39.562 133.093 39.562C131.024 39.562 129.52 38.1223 129.52 35.1803V4.94686C129.52 3.25679 129.958 2.13007 130.836 1.56672C131.714 0.940765 132.905 0.690384 134.347 0.690384H136.729C138.171 0.690384 139.237 0.815574 139.864 1.06596C140.49 1.31634 140.992 1.8171 141.305 2.50564C141.619 3.19419 141.932 4.25831 142.371 5.82319L147.951 26.7926L153.53 5.82319C153.969 4.25831 154.283 3.19419 154.596 2.50564C154.909 1.8171 155.348 1.37893 156.038 1.06596C156.665 0.815574 157.793 0.690384 159.173 0.690384H161.555C163.059 0.690384 164.25 1.00336 165.065 1.56672C165.943 2.13007 166.382 3.25679 166.382 4.94686V35.2429C166.382 38.1849 164.94 39.6246 162.746 39.6246C160.677 39.6246 159.235 38.1849 159.235 35.2429V8.76516L153.091 33.1773C152.715 34.7422 152.339 35.9315 152.088 36.6826C151.838 37.4338 151.399 38.1223 150.709 38.6857C150.02 39.3116 149.079 39.6246 147.888 39.6246C144.064 39.6246 143.437 36.2445 142.685 33.1773L136.666 8.76516Z" fill="#FFC629"></path><path d="M183.622 39.6244C183.372 39.8748 183.058 40 182.619 40C182.243 40 181.93 39.8748 181.679 39.6244C181.428 39.3741 181.303 39.0611 181.303 38.6855C181.303 38.3099 181.428 37.997 181.679 37.7466C181.93 37.4962 182.243 37.371 182.619 37.371C183.058 37.371 183.372 37.4962 183.622 37.7466C183.873 37.997 183.998 38.3099 183.998 38.6855C183.998 38.9985 183.873 39.3115 183.622 39.6244Z" fill="#00A6CE"></path><path d="M183.999 30.8585C183.999 32.3608 183.561 33.5501 182.683 34.4264C181.805 35.3027 180.614 35.6783 179.109 35.6783C176.1 35.6783 173.969 33.8005 173.969 30.7333C173.969 28.1669 175.724 26.4768 176.853 26.4768C177.166 26.4768 177.417 26.602 177.605 26.7898C177.793 26.9776 177.918 27.2906 177.918 27.6035C177.918 27.9791 177.73 28.2295 177.229 28.5425C176.351 29.1684 175.849 29.7318 175.849 30.7333C175.849 31.4844 176.163 32.0478 176.727 32.486C177.291 32.9241 178.044 33.1745 179.047 33.1745C180.927 33.1745 182.181 32.2356 182.181 30.7333C182.181 29.7318 181.742 29.0432 180.802 28.5425C180.238 28.2295 179.924 27.9165 179.924 27.4158C179.924 27.1028 180.05 26.8524 180.238 26.6646C180.489 26.4768 180.739 26.3516 180.99 26.3516C182.181 26.3516 183.999 27.9165 183.999 30.8585Z" fill="#00A6CE"></path><path d="M176.664 18.8412C176.1 19.2793 175.849 19.8427 175.849 20.5938C175.849 22.0335 177.041 23.035 179.047 23.035C180.99 23.035 182.244 22.0961 182.244 20.5938C182.244 19.8427 181.993 19.2793 181.429 18.8412C180.865 18.403 180.112 18.1526 179.109 18.1526C177.981 18.2152 177.166 18.403 176.664 18.8412ZM183.999 20.6564C183.999 23.5984 181.931 25.5388 178.984 25.5388C175.975 25.5388 173.969 23.5984 173.969 20.6564C173.969 17.6518 176.038 15.774 178.984 15.7114C181.931 15.7114 183.999 17.6518 183.999 20.6564Z" fill="#00A6CE"></path><path d="M182.433 6.32222C183.499 6.32222 184 6.82298 184 7.57413C184 8.32527 183.499 8.82603 182.433 8.82603H178.483C177.856 8.82603 177.355 8.82603 177.042 8.88863C176.352 8.95122 175.85 9.32679 175.85 10.1405C175.85 10.9543 176.101 11.455 176.665 11.768C177.23 12.0184 177.982 12.1436 179.048 12.1436H182.37C183.373 12.1436 183.938 12.6443 183.938 13.3955C183.938 14.1466 183.436 14.6474 182.37 14.6474H175.286C174.346 14.6474 173.844 14.1466 173.844 13.4581C173.844 12.7695 174.346 12.2688 175.098 12.2688H175.349C174.346 11.3924 173.844 10.4535 173.844 9.2642C173.844 8.01229 174.346 7.13596 175.349 6.5726C174.346 5.75887 173.844 4.81994 173.844 3.63063C173.844 2.31613 174.408 1.25201 175.412 0.813846C175.85 0.62606 176.54 0.50087 177.543 0.50087H182.37C183.436 0.50087 183.938 1.00163 183.938 1.75277C183.938 2.50392 183.436 3.00468 182.37 3.00468H178.233C177.731 3.00468 177.292 3.00468 176.979 3.06727C176.352 3.12987 175.85 3.50544 175.85 4.31918C175.85 4.94513 176.227 5.63368 176.916 5.94665C177.292 6.13444 178.045 6.19703 179.11 6.19703H182.433V6.32222Z" fill="#00A6CE"></path><path d="M39.4312 38.7462C37.9266 38.6836 36.4847 38.4332 35.1682 37.9324C33.7263 37.3691 32.4725 36.6179 31.4067 35.5538C30.341 34.4897 29.4633 33.2378 28.8364 31.6103C28.2095 30.0454 27.896 28.2928 27.896 26.4149V2.19055C27.896 1.5646 28.0841 1.00124 28.4602 0.625674C28.8364 0.250102 29.4006 0.0623169 30.0275 0.0623169H32.7232C33.3501 0.0623169 33.9144 0.250102 34.2905 0.625674C34.6667 1.00124 34.8547 1.5646 34.8547 2.19055V9.01343H38.8043C39.4312 9.01343 39.9954 9.20122 40.3716 9.57679C40.7477 9.95236 40.9358 10.5157 40.9358 11.1417V13.3951C40.9358 14.021 40.7477 14.5844 40.3716 14.96C39.9954 15.3355 39.4312 15.5233 38.8043 15.5233H34.8547V26.1645C34.8547 28.2928 35.2936 29.8576 36.1712 31.0469C37.0489 32.1737 38.2401 32.737 39.682 32.737H39.8073C40.3716 32.737 40.8104 32.9248 41.1866 33.2378C41.5 33.5507 41.6881 34.0515 41.6881 34.6149V36.9309C41.6881 37.4942 41.5 37.9324 41.1866 38.308C40.8731 38.621 40.3716 38.8087 39.8073 38.8087H39.4312V38.7462Z" fill="#00A6CE"></path><path d="M54.6675 38.7462C53.1629 38.6836 51.721 38.4332 50.4045 37.9324C48.9626 37.3691 47.7088 36.6179 46.643 35.5538C45.5773 34.4897 44.6996 33.2378 44.0727 31.6103C43.4458 30.0454 43.1323 28.2928 43.1323 26.4149V2.19055C43.1323 1.5646 43.3204 1.00124 43.6965 0.625674C44.0727 0.250102 44.6369 0.0623169 45.2638 0.0623169H47.9596C48.5865 0.0623169 49.1507 0.250102 49.5268 0.625674C49.903 1.00124 50.0911 1.5646 50.0911 2.19055V9.01343H53.9779C54.6048 9.01343 55.169 9.20122 55.5452 9.57679C55.9213 9.95236 56.1094 10.5157 56.1094 11.1417V13.3951C56.1094 14.021 55.9213 14.5844 55.5452 14.96C55.169 15.3355 54.6048 15.5233 53.9779 15.5233H50.0911V26.1645C50.0911 28.2928 50.5299 29.8576 51.4076 31.0469C52.2852 32.1737 53.4764 32.737 54.9183 32.737H55.0437C55.6079 32.737 56.0467 32.9248 56.4229 33.2378C56.799 33.5507 56.9244 34.0515 56.9244 34.6149V36.9309C56.9244 37.4942 56.7363 37.9324 56.4229 38.308C56.1094 38.621 55.6079 38.8087 55.0437 38.8087H54.6675V38.7462Z" fill="#00A6CE"></path><path d="M24.8257 7.8244C24.3242 6.5725 23.6973 5.44578 23.0077 4.50686C22.2554 3.56793 21.4404 2.81678 20.5 2.12824C19.5597 1.43969 18.4312 0.938928 17.2401 0.563357C15.9863 0.187786 14.7324 0 13.4159 0H2.1315C1.50459 0 0.940366 0.187786 0.564218 0.563357C0.18807 0.938928 0 1.50229 0 2.12824V36.5556C0 37.1816 0.18807 37.7449 0.564218 38.1205C0.940366 38.4961 1.50459 38.6838 2.1315 38.6838H4.95261C5.57952 38.6838 6.08105 38.4961 6.51989 38.1205C6.89604 37.7449 7.08411 37.1816 7.08411 36.5556V24.0992H13.3532C15.1713 24.0992 16.9266 23.7236 18.6193 23.035C20.312 22.3465 21.7539 21.2824 22.8196 19.9053C23.8854 18.5282 24.6377 17.2137 25.0138 15.8366C25.39 14.5221 25.578 13.2702 25.578 12.0809C25.578 10.5786 25.3273 9.0763 24.8257 7.8244ZM18.9955 12.3939C18.9955 15.148 16.7386 17.4015 13.9802 17.4015H7.02142V7.44883H13.9802C16.7386 7.44883 18.9955 9.63966 18.9955 12.3939Z" fill="#00A6CE"></path></svg>